<mxfile host="Electron" agent="Mozilla/5.0 (Windows NT 10.0; Win64; x64) AppleWebKit/537.36 (KHTML, like Gecko) draw.io/26.0.4 Chrome/128.0.6613.186 Electron/32.2.5 Safari/537.36" version="26.0.4">
  <diagram id="eVjxTC_QZdd0q6ocVWvb" name="PÃ¡gina-1">
    <mxGraphModel dx="1257" dy="749" grid="1" gridSize="10" guides="1" tooltips="1" connect="1" arrows="1" fold="1" page="1" pageScale="1" pageWidth="827" pageHeight="1169" math="0" shadow="0">
      <root>
        <mxCell id="0" />
        <mxCell id="1" parent="0" />
        <mxCell id="T7BaLUBPOmV6ZT6eGmMS-28" value="Public subnet" style="points=[[0,0],[0.25,0],[0.5,0],[0.75,0],[1,0],[1,0.25],[1,0.5],[1,0.75],[1,1],[0.75,1],[0.5,1],[0.25,1],[0,1],[0,0.75],[0,0.5],[0,0.25]];outlineConnect=0;gradientColor=none;html=1;whiteSpace=wrap;fontSize=12;fontStyle=0;container=1;pointerEvents=0;collapsible=0;recursiveResize=0;shape=mxgraph.aws4.group;grIcon=mxgraph.aws4.group_security_group;grStroke=0;strokeColor=#7AA116;fillColor=#F2F6E8;verticalAlign=top;align=left;spacingLeft=30;fontColor=#248814;dashed=0;" vertex="1" parent="1">
          <mxGeometry x="620" y="430" width="310" height="240" as="geometry" />
        </mxCell>
        <mxCell id="T7BaLUBPOmV6ZT6eGmMS-30" value="" style="edgeStyle=orthogonalEdgeStyle;rounded=0;orthogonalLoop=1;jettySize=auto;html=1;" edge="1" parent="T7BaLUBPOmV6ZT6eGmMS-28" source="T7BaLUBPOmV6ZT6eGmMS-6" target="T7BaLUBPOmV6ZT6eGmMS-7">
          <mxGeometry relative="1" as="geometry">
            <Array as="points">
              <mxPoint x="160" y="117" />
              <mxPoint x="160" y="117" />
            </Array>
          </mxGeometry>
        </mxCell>
        <mxCell id="T7BaLUBPOmV6ZT6eGmMS-6" value="CloudFront" style="outlineConnect=0;dashed=0;verticalLabelPosition=bottom;verticalAlign=top;align=center;html=1;shape=mxgraph.aws3.cloudfront;fillColor=#F58536;gradientColor=none;" vertex="1" parent="T7BaLUBPOmV6ZT6eGmMS-28">
          <mxGeometry x="30" y="70" width="76.5" height="93" as="geometry" />
        </mxCell>
        <mxCell id="T7BaLUBPOmV6ZT6eGmMS-7" value="S3 Frontend" style="sketch=0;outlineConnect=0;fontColor=#232F3E;gradientColor=none;strokeColor=#ffffff;fillColor=#232F3E;dashed=0;verticalLabelPosition=middle;verticalAlign=bottom;align=center;html=1;whiteSpace=wrap;fontSize=10;fontStyle=1;spacing=3;shape=mxgraph.aws4.productIcon;prIcon=mxgraph.aws4.s3;" vertex="1" parent="T7BaLUBPOmV6ZT6eGmMS-28">
          <mxGeometry x="180" y="70" width="80" height="100" as="geometry" />
        </mxCell>
        <mxCell id="T7BaLUBPOmV6ZT6eGmMS-79" style="edgeStyle=orthogonalEdgeStyle;rounded=0;orthogonalLoop=1;jettySize=auto;html=1;" edge="1" parent="1" source="T7BaLUBPOmV6ZT6eGmMS-3" target="T7BaLUBPOmV6ZT6eGmMS-5">
          <mxGeometry relative="1" as="geometry">
            <Array as="points">
              <mxPoint x="179" y="540" />
            </Array>
          </mxGeometry>
        </mxCell>
        <mxCell id="T7BaLUBPOmV6ZT6eGmMS-3" value="User" style="sketch=0;outlineConnect=0;fontColor=#232F3E;gradientColor=none;fillColor=#232F3D;strokeColor=none;dashed=0;verticalLabelPosition=bottom;verticalAlign=top;align=center;html=1;fontSize=12;fontStyle=0;aspect=fixed;pointerEvents=1;shape=mxgraph.aws4.user;" vertex="1" parent="1">
          <mxGeometry x="140" y="247.5" width="78" height="78" as="geometry" />
        </mxCell>
        <mxCell id="T7BaLUBPOmV6ZT6eGmMS-33" style="edgeStyle=orthogonalEdgeStyle;rounded=0;orthogonalLoop=1;jettySize=auto;html=1;" edge="1" parent="1" source="T7BaLUBPOmV6ZT6eGmMS-5" target="T7BaLUBPOmV6ZT6eGmMS-6">
          <mxGeometry relative="1" as="geometry">
            <Array as="points">
              <mxPoint x="620" y="540" />
              <mxPoint x="620" y="540" />
            </Array>
          </mxGeometry>
        </mxCell>
        <mxCell id="T7BaLUBPOmV6ZT6eGmMS-5" value="Route 53" style="sketch=0;points=[[0,0,0],[0.25,0,0],[0.5,0,0],[0.75,0,0],[1,0,0],[0,1,0],[0.25,1,0],[0.5,1,0],[0.75,1,0],[1,1,0],[0,0.25,0],[0,0.5,0],[0,0.75,0],[1,0.25,0],[1,0.5,0],[1,0.75,0]];outlineConnect=0;fontColor=#232F3E;fillColor=#8C4FFF;strokeColor=#ffffff;dashed=0;verticalLabelPosition=bottom;verticalAlign=top;align=center;html=1;fontSize=12;fontStyle=0;aspect=fixed;shape=mxgraph.aws4.resourceIcon;resIcon=mxgraph.aws4.route_53;" vertex="1" parent="1">
          <mxGeometry x="430" y="507" width="78" height="78" as="geometry" />
        </mxCell>
        <mxCell id="T7BaLUBPOmV6ZT6eGmMS-29" style="edgeStyle=orthogonalEdgeStyle;rounded=0;orthogonalLoop=1;jettySize=auto;html=1;startArrow=classic;startFill=1;" edge="1" parent="1" source="T7BaLUBPOmV6ZT6eGmMS-7" target="T7BaLUBPOmV6ZT6eGmMS-11">
          <mxGeometry relative="1" as="geometry">
            <Array as="points">
              <mxPoint x="920" y="544" />
              <mxPoint x="920" y="544" />
            </Array>
          </mxGeometry>
        </mxCell>
        <mxCell id="T7BaLUBPOmV6ZT6eGmMS-63" style="edgeStyle=orthogonalEdgeStyle;rounded=0;orthogonalLoop=1;jettySize=auto;html=1;strokeColor=#FF3333;" edge="1" parent="1" source="T7BaLUBPOmV6ZT6eGmMS-32" target="T7BaLUBPOmV6ZT6eGmMS-7">
          <mxGeometry relative="1" as="geometry" />
        </mxCell>
        <mxCell id="T7BaLUBPOmV6ZT6eGmMS-50" style="edgeStyle=orthogonalEdgeStyle;rounded=0;orthogonalLoop=1;jettySize=auto;html=1;" edge="1" parent="1" source="T7BaLUBPOmV6ZT6eGmMS-46" target="T7BaLUBPOmV6ZT6eGmMS-3">
          <mxGeometry relative="1" as="geometry" />
        </mxCell>
        <mxCell id="T7BaLUBPOmV6ZT6eGmMS-46" value="SES" style="outlineConnect=0;dashed=0;verticalLabelPosition=bottom;verticalAlign=top;align=center;html=1;shape=mxgraph.aws3.ses;fillColor=#D9A741;gradientColor=none;" vertex="1" parent="1">
          <mxGeometry x="830.25" y="240" width="79.5" height="93" as="geometry" />
        </mxCell>
        <mxCell id="T7BaLUBPOmV6ZT6eGmMS-52" style="edgeStyle=orthogonalEdgeStyle;rounded=0;orthogonalLoop=1;jettySize=auto;html=1;entryX=1;entryY=0.5;entryDx=0;entryDy=0;entryPerimeter=0;" edge="1" parent="1" source="T7BaLUBPOmV6ZT6eGmMS-48" target="T7BaLUBPOmV6ZT6eGmMS-46">
          <mxGeometry relative="1" as="geometry">
            <Array as="points">
              <mxPoint x="1289" y="287" />
            </Array>
          </mxGeometry>
        </mxCell>
        <mxCell id="T7BaLUBPOmV6ZT6eGmMS-61" value="Devs" style="sketch=0;outlineConnect=0;fontColor=#232F3E;gradientColor=none;fillColor=#232F3D;strokeColor=none;dashed=0;verticalLabelPosition=bottom;verticalAlign=top;align=center;html=1;fontSize=12;fontStyle=0;aspect=fixed;pointerEvents=1;shape=mxgraph.aws4.user;" vertex="1" parent="1">
          <mxGeometry x="140" y="836" width="78" height="78" as="geometry" />
        </mxCell>
        <mxCell id="T7BaLUBPOmV6ZT6eGmMS-62" style="edgeStyle=orthogonalEdgeStyle;rounded=0;orthogonalLoop=1;jettySize=auto;html=1;entryX=0;entryY=0.5;entryDx=0;entryDy=0;entryPerimeter=0;strokeColor=#FF3333;" edge="1" parent="1" source="T7BaLUBPOmV6ZT6eGmMS-61" target="T7BaLUBPOmV6ZT6eGmMS-32">
          <mxGeometry relative="1" as="geometry" />
        </mxCell>
        <mxCell id="T7BaLUBPOmV6ZT6eGmMS-67" value="VPC" style="points=[[0,0],[0.25,0],[0.5,0],[0.75,0],[1,0],[1,0.25],[1,0.5],[1,0.75],[1,1],[0.75,1],[0.5,1],[0.25,1],[0,1],[0,0.75],[0,0.5],[0,0.25]];outlineConnect=0;gradientColor=none;html=1;whiteSpace=wrap;fontSize=12;fontStyle=0;container=1;pointerEvents=0;collapsible=0;recursiveResize=0;shape=mxgraph.aws4.group;grIcon=mxgraph.aws4.group_vpc2;strokeColor=#8C4FFF;fillColor=none;verticalAlign=top;align=left;spacingLeft=30;fontColor=#AAB7B8;dashed=0;" vertex="1" parent="1">
          <mxGeometry x="590" y="378" width="1010" height="552" as="geometry" />
        </mxCell>
        <mxCell id="T7BaLUBPOmV6ZT6eGmMS-11" value="API Gateway" style="sketch=0;points=[[0,0,0],[0.25,0,0],[0.5,0,0],[0.75,0,0],[1,0,0],[0,1,0],[0.25,1,0],[0.5,1,0],[0.75,1,0],[1,1,0],[0,0.25,0],[0,0.5,0],[0,0.75,0],[1,0.25,0],[1,0.5,0],[1,0.75,0]];outlineConnect=0;fontColor=#232F3E;fillColor=#8C4FFF;strokeColor=#ffffff;dashed=0;verticalLabelPosition=bottom;verticalAlign=top;align=center;html=1;fontSize=12;fontStyle=0;aspect=fixed;shape=mxgraph.aws4.resourceIcon;resIcon=mxgraph.aws4.api_gateway;" vertex="1" parent="T7BaLUBPOmV6ZT6eGmMS-67">
          <mxGeometry x="370" y="143.5" width="45" height="45" as="geometry" />
        </mxCell>
        <mxCell id="T7BaLUBPOmV6ZT6eGmMS-16" value="Private subnet" style="points=[[0,0],[0.25,0],[0.5,0],[0.75,0],[1,0],[1,0.25],[1,0.5],[1,0.75],[1,1],[0.75,1],[0.5,1],[0.25,1],[0,1],[0,0.75],[0,0.5],[0,0.25]];outlineConnect=0;gradientColor=none;html=1;whiteSpace=wrap;fontSize=12;fontStyle=0;container=1;pointerEvents=0;collapsible=0;recursiveResize=0;shape=mxgraph.aws4.group;grIcon=mxgraph.aws4.group_security_group;grStroke=0;strokeColor=#00A4A6;fillColor=#E6F6F7;verticalAlign=top;align=left;spacingLeft=30;fontColor=#147EBA;dashed=0;" vertex="1" parent="T7BaLUBPOmV6ZT6eGmMS-67">
          <mxGeometry x="450" y="52" width="512" height="460" as="geometry" />
        </mxCell>
        <mxCell id="T7BaLUBPOmV6ZT6eGmMS-14" value="PDFKit" style="shadow=0;dashed=0;html=1;strokeColor=none;fillColor=#4495D1;labelPosition=center;verticalLabelPosition=bottom;verticalAlign=top;align=center;outlineConnect=0;shape=mxgraph.veeam.checked_doc;" vertex="1" parent="T7BaLUBPOmV6ZT6eGmMS-16">
          <mxGeometry x="210.99999999999997" y="224" width="74.9" height="72.8" as="geometry" />
        </mxCell>
        <mxCell id="T7BaLUBPOmV6ZT6eGmMS-20" value="" style="edgeStyle=orthogonalEdgeStyle;rounded=0;orthogonalLoop=1;jettySize=auto;html=1;" edge="1" parent="T7BaLUBPOmV6ZT6eGmMS-16" source="T7BaLUBPOmV6ZT6eGmMS-13" target="T7BaLUBPOmV6ZT6eGmMS-12">
          <mxGeometry relative="1" as="geometry" />
        </mxCell>
        <mxCell id="T7BaLUBPOmV6ZT6eGmMS-13" value="Amazon Comprehend" style="sketch=0;outlineConnect=0;fontColor=#232F3E;gradientColor=none;strokeColor=#ffffff;fillColor=#232F3E;dashed=0;verticalLabelPosition=middle;verticalAlign=bottom;align=center;html=1;whiteSpace=wrap;fontSize=10;fontStyle=1;spacing=3;shape=mxgraph.aws4.productIcon;prIcon=mxgraph.aws4.comprehend;" vertex="1" parent="T7BaLUBPOmV6ZT6eGmMS-16">
          <mxGeometry x="343" y="59" width="80" height="110" as="geometry" />
        </mxCell>
        <mxCell id="T7BaLUBPOmV6ZT6eGmMS-12" value="Dynamo DB" style="outlineConnect=0;dashed=0;verticalLabelPosition=bottom;verticalAlign=top;align=center;html=1;shape=mxgraph.aws3.dynamo_db;fillColor=#2E73B8;gradientColor=none;" vertex="1" parent="T7BaLUBPOmV6ZT6eGmMS-16">
          <mxGeometry x="347" y="224" width="72" height="81" as="geometry" />
        </mxCell>
        <mxCell id="T7BaLUBPOmV6ZT6eGmMS-15" style="edgeStyle=orthogonalEdgeStyle;rounded=0;orthogonalLoop=1;jettySize=auto;html=1;exitX=0.5;exitY=1;exitDx=0;exitDy=0;exitPerimeter=0;" edge="1" parent="T7BaLUBPOmV6ZT6eGmMS-16" source="T7BaLUBPOmV6ZT6eGmMS-12" target="T7BaLUBPOmV6ZT6eGmMS-12">
          <mxGeometry relative="1" as="geometry" />
        </mxCell>
        <mxCell id="T7BaLUBPOmV6ZT6eGmMS-10" value="Script python" style="outlineConnect=0;dashed=0;verticalLabelPosition=bottom;verticalAlign=top;align=center;html=1;shape=mxgraph.aws3.lambda_function;fillColor=#F58534;gradientColor=none;" vertex="1" parent="T7BaLUBPOmV6ZT6eGmMS-16">
          <mxGeometry x="214" y="78.00000000000006" width="69" height="72" as="geometry" />
        </mxCell>
        <mxCell id="T7BaLUBPOmV6ZT6eGmMS-17" value="" style="edgeStyle=orthogonalEdgeStyle;rounded=0;orthogonalLoop=1;jettySize=auto;html=1;" edge="1" parent="T7BaLUBPOmV6ZT6eGmMS-16" source="T7BaLUBPOmV6ZT6eGmMS-10" target="T7BaLUBPOmV6ZT6eGmMS-14">
          <mxGeometry relative="1" as="geometry" />
        </mxCell>
        <mxCell id="T7BaLUBPOmV6ZT6eGmMS-19" value="" style="edgeStyle=orthogonalEdgeStyle;rounded=0;orthogonalLoop=1;jettySize=auto;html=1;startArrow=classic;startFill=1;" edge="1" parent="T7BaLUBPOmV6ZT6eGmMS-16" source="T7BaLUBPOmV6ZT6eGmMS-10" target="T7BaLUBPOmV6ZT6eGmMS-13">
          <mxGeometry relative="1" as="geometry" />
        </mxCell>
        <mxCell id="T7BaLUBPOmV6ZT6eGmMS-58" value="VPC Endpoint" style="sketch=0;outlineConnect=0;fontColor=#232F3E;gradientColor=none;fillColor=#8C4FFF;strokeColor=none;dashed=0;verticalLabelPosition=bottom;verticalAlign=top;align=center;html=1;fontSize=12;fontStyle=0;aspect=fixed;pointerEvents=1;shape=mxgraph.aws4.endpoints;" vertex="1" parent="T7BaLUBPOmV6ZT6eGmMS-16">
          <mxGeometry x="118" y="230" width="40" height="40" as="geometry" />
        </mxCell>
        <mxCell id="T7BaLUBPOmV6ZT6eGmMS-60" style="edgeStyle=orthogonalEdgeStyle;rounded=0;orthogonalLoop=1;jettySize=auto;html=1;entryX=0.145;entryY=0.855;entryDx=0;entryDy=0;entryPerimeter=0;" edge="1" parent="T7BaLUBPOmV6ZT6eGmMS-16" source="T7BaLUBPOmV6ZT6eGmMS-58" target="T7BaLUBPOmV6ZT6eGmMS-10">
          <mxGeometry relative="1" as="geometry">
            <Array as="points">
              <mxPoint x="140" y="250" />
              <mxPoint x="140" y="140" />
            </Array>
          </mxGeometry>
        </mxCell>
        <mxCell id="T7BaLUBPOmV6ZT6eGmMS-21" value="" style="edgeStyle=orthogonalEdgeStyle;rounded=0;orthogonalLoop=1;jettySize=auto;html=1;startArrow=classic;startFill=1;" edge="1" parent="T7BaLUBPOmV6ZT6eGmMS-67" source="T7BaLUBPOmV6ZT6eGmMS-11" target="T7BaLUBPOmV6ZT6eGmMS-10">
          <mxGeometry relative="1" as="geometry" />
        </mxCell>
        <mxCell id="T7BaLUBPOmV6ZT6eGmMS-69" value="AWS Cloud" style="points=[[0,0],[0.25,0],[0.5,0],[0.75,0],[1,0],[1,0.25],[1,0.5],[1,0.75],[1,1],[0.75,1],[0.5,1],[0.25,1],[0,1],[0,0.75],[0,0.5],[0,0.25]];outlineConnect=0;gradientColor=none;html=1;whiteSpace=wrap;fontSize=12;fontStyle=0;container=1;pointerEvents=0;collapsible=0;recursiveResize=0;shape=mxgraph.aws4.group;grIcon=mxgraph.aws4.group_aws_cloud;strokeColor=#232F3E;fillColor=none;verticalAlign=top;align=left;spacingLeft=30;fontColor=#232F3E;dashed=0;" vertex="1" parent="T7BaLUBPOmV6ZT6eGmMS-67">
          <mxGeometry x="-230" y="-218" width="1291" height="1110" as="geometry" />
        </mxCell>
        <mxCell id="T7BaLUBPOmV6ZT6eGmMS-32" value="github actions" style="verticalLabelPosition=bottom;html=1;verticalAlign=top;align=center;strokeColor=none;fillColor=#00BEF2;shape=mxgraph.azure.github_code;pointerEvents=1;" vertex="1" parent="T7BaLUBPOmV6ZT6eGmMS-69">
          <mxGeometry x="81" y="690" width="50" height="50" as="geometry" />
        </mxCell>
        <mxCell id="T7BaLUBPOmV6ZT6eGmMS-48" value="VPC Endpoint" style="sketch=0;outlineConnect=0;fontColor=#232F3E;gradientColor=none;fillColor=#8C4FFF;strokeColor=none;dashed=0;verticalLabelPosition=bottom;verticalAlign=top;align=center;html=1;fontSize=12;fontStyle=0;aspect=fixed;pointerEvents=1;shape=mxgraph.aws4.endpoints;" vertex="1" parent="T7BaLUBPOmV6ZT6eGmMS-69">
          <mxGeometry x="900.5" y="190" width="58" height="58" as="geometry" />
        </mxCell>
        <mxCell id="T7BaLUBPOmV6ZT6eGmMS-55" value="" style="outlineConnect=0;dashed=0;verticalLabelPosition=bottom;verticalAlign=top;align=center;html=1;shape=mxgraph.aws3.route_table;fillColor=#F58536;gradientColor=none;" vertex="1" parent="T7BaLUBPOmV6ZT6eGmMS-69">
          <mxGeometry x="690" y="485.5" width="75" height="69" as="geometry" />
        </mxCell>
        <mxCell id="T7BaLUBPOmV6ZT6eGmMS-72" value="Region" style="points=[[0,0],[0.25,0],[0.5,0],[0.75,0],[1,0],[1,0.25],[1,0.5],[1,0.75],[1,1],[0.75,1],[0.5,1],[0.25,1],[0,1],[0,0.75],[0,0.5],[0,0.25]];outlineConnect=0;gradientColor=none;html=1;whiteSpace=wrap;fontSize=12;fontStyle=0;container=1;pointerEvents=0;collapsible=0;recursiveResize=0;shape=mxgraph.aws4.group;grIcon=mxgraph.aws4.group_region;strokeColor=#00A4A6;fillColor=none;verticalAlign=top;align=left;spacingLeft=30;fontColor=#147EBA;dashed=1;" vertex="1" parent="T7BaLUBPOmV6ZT6eGmMS-69">
          <mxGeometry x="170" y="60" width="1090" height="1020" as="geometry" />
        </mxCell>
        <mxCell id="T7BaLUBPOmV6ZT6eGmMS-34" value="" style="group;verticalAlign=middle;" vertex="1" connectable="0" parent="T7BaLUBPOmV6ZT6eGmMS-72">
          <mxGeometry x="170" y="790" width="840" height="190" as="geometry" />
        </mxCell>
        <mxCell id="T7BaLUBPOmV6ZT6eGmMS-43" value="" style="group" vertex="1" connectable="0" parent="T7BaLUBPOmV6ZT6eGmMS-34">
          <mxGeometry x="350" y="5" width="490" height="180" as="geometry" />
        </mxCell>
        <mxCell id="T7BaLUBPOmV6ZT6eGmMS-42" value="SEGURIDAD" style="rounded=1;whiteSpace=wrap;html=1;verticalAlign=top;" vertex="1" parent="T7BaLUBPOmV6ZT6eGmMS-43">
          <mxGeometry width="490" height="180" as="geometry" />
        </mxCell>
        <mxCell id="T7BaLUBPOmV6ZT6eGmMS-38" value="IAM" style="outlineConnect=0;dashed=0;verticalLabelPosition=bottom;verticalAlign=top;align=center;html=1;shape=mxgraph.aws3.iam;fillColor=#759C3E;gradientColor=none;" vertex="1" parent="T7BaLUBPOmV6ZT6eGmMS-43">
          <mxGeometry x="20" y="30" width="42" height="81" as="geometry" />
        </mxCell>
        <mxCell id="T7BaLUBPOmV6ZT6eGmMS-39" value="Shield" style="sketch=0;points=[[0,0,0],[0.25,0,0],[0.5,0,0],[0.75,0,0],[1,0,0],[0,1,0],[0.25,1,0],[0.5,1,0],[0.75,1,0],[1,1,0],[0,0.25,0],[0,0.5,0],[0,0.75,0],[1,0.25,0],[1,0.5,0],[1,0.75,0]];outlineConnect=0;fontColor=#232F3E;fillColor=#DD344C;strokeColor=#ffffff;dashed=0;verticalLabelPosition=bottom;verticalAlign=top;align=center;html=1;fontSize=12;fontStyle=0;aspect=fixed;shape=mxgraph.aws4.resourceIcon;resIcon=mxgraph.aws4.shield;" vertex="1" parent="T7BaLUBPOmV6ZT6eGmMS-43">
          <mxGeometry x="80" y="33" width="78" height="78" as="geometry" />
        </mxCell>
        <mxCell id="T7BaLUBPOmV6ZT6eGmMS-40" value="Secrets manager" style="sketch=0;points=[[0,0,0],[0.25,0,0],[0.5,0,0],[0.75,0,0],[1,0,0],[0,1,0],[0.25,1,0],[0.5,1,0],[0.75,1,0],[1,1,0],[0,0.25,0],[0,0.5,0],[0,0.75,0],[1,0.25,0],[1,0.5,0],[1,0.75,0]];outlineConnect=0;fontColor=#232F3E;fillColor=#DD344C;strokeColor=#ffffff;dashed=0;verticalLabelPosition=bottom;verticalAlign=top;align=center;html=1;fontSize=12;fontStyle=0;aspect=fixed;shape=mxgraph.aws4.resourceIcon;resIcon=mxgraph.aws4.secrets_manager;" vertex="1" parent="T7BaLUBPOmV6ZT6eGmMS-43">
          <mxGeometry x="180" y="33" width="78" height="78" as="geometry" />
        </mxCell>
        <mxCell id="T7BaLUBPOmV6ZT6eGmMS-41" value="Certificates manager" style="sketch=0;points=[[0,0,0],[0.25,0,0],[0.5,0,0],[0.75,0,0],[1,0,0],[0,1,0],[0.25,1,0],[0.5,1,0],[0.75,1,0],[1,1,0],[0,0.25,0],[0,0.5,0],[0,0.75,0],[1,0.25,0],[1,0.5,0],[1,0.75,0]];outlineConnect=0;fontColor=#232F3E;fillColor=#DD344C;strokeColor=#ffffff;dashed=0;verticalLabelPosition=bottom;verticalAlign=top;align=center;html=1;fontSize=12;fontStyle=0;aspect=fixed;shape=mxgraph.aws4.resourceIcon;resIcon=mxgraph.aws4.certificate_manager_3;" vertex="1" parent="T7BaLUBPOmV6ZT6eGmMS-43">
          <mxGeometry x="290" y="33" width="78" height="78" as="geometry" />
        </mxCell>
        <mxCell id="T7BaLUBPOmV6ZT6eGmMS-76" value="Cognito" style="sketch=0;points=[[0,0,0],[0.25,0,0],[0.5,0,0],[0.75,0,0],[1,0,0],[0,1,0],[0.25,1,0],[0.5,1,0],[0.75,1,0],[1,1,0],[0,0.25,0],[0,0.5,0],[0,0.75,0],[1,0.25,0],[1,0.5,0],[1,0.75,0]];outlineConnect=0;fontColor=#232F3E;fillColor=#DD344C;strokeColor=#ffffff;dashed=0;verticalLabelPosition=bottom;verticalAlign=top;align=center;html=1;fontSize=12;fontStyle=0;aspect=fixed;shape=mxgraph.aws4.resourceIcon;resIcon=mxgraph.aws4.cognito;" vertex="1" parent="T7BaLUBPOmV6ZT6eGmMS-43">
          <mxGeometry x="390" y="31.5" width="78" height="78" as="geometry" />
        </mxCell>
        <mxCell id="T7BaLUBPOmV6ZT6eGmMS-78" value="" style="group" vertex="1" connectable="0" parent="T7BaLUBPOmV6ZT6eGmMS-34">
          <mxGeometry width="260" height="190" as="geometry" />
        </mxCell>
        <mxCell id="T7BaLUBPOmV6ZT6eGmMS-31" value="MONITOREO" style="rounded=1;whiteSpace=wrap;html=1;verticalAlign=top;" vertex="1" parent="T7BaLUBPOmV6ZT6eGmMS-78">
          <mxGeometry width="260" height="190" as="geometry" />
        </mxCell>
        <mxCell id="T7BaLUBPOmV6ZT6eGmMS-25" value="Cloud Trial" style="sketch=0;points=[[0,0,0],[0.25,0,0],[0.5,0,0],[0.75,0,0],[1,0,0],[0,1,0],[0.25,1,0],[0.5,1,0],[0.75,1,0],[1,1,0],[0,0.25,0],[0,0.5,0],[0,0.75,0],[1,0.25,0],[1,0.5,0],[1,0.75,0]];points=[[0,0,0],[0.25,0,0],[0.5,0,0],[0.75,0,0],[1,0,0],[0,1,0],[0.25,1,0],[0.5,1,0],[0.75,1,0],[1,1,0],[0,0.25,0],[0,0.5,0],[0,0.75,0],[1,0.25,0],[1,0.5,0],[1,0.75,0]];outlineConnect=0;fontColor=#232F3E;fillColor=#E7157B;strokeColor=#ffffff;dashed=0;verticalLabelPosition=bottom;verticalAlign=top;align=center;html=1;fontSize=12;fontStyle=0;aspect=fixed;shape=mxgraph.aws4.resourceIcon;resIcon=mxgraph.aws4.cloudtrail;" vertex="1" parent="T7BaLUBPOmV6ZT6eGmMS-78">
          <mxGeometry x="30" y="56" width="78" height="78" as="geometry" />
        </mxCell>
        <mxCell id="T7BaLUBPOmV6ZT6eGmMS-26" value="Cloud Watch" style="sketch=0;points=[[0,0,0],[0.25,0,0],[0.5,0,0],[0.75,0,0],[1,0,0],[0,1,0],[0.25,1,0],[0.5,1,0],[0.75,1,0],[1,1,0],[0,0.25,0],[0,0.5,0],[0,0.75,0],[1,0.25,0],[1,0.5,0],[1,0.75,0]];points=[[0,0,0],[0.25,0,0],[0.5,0,0],[0.75,0,0],[1,0,0],[0,1,0],[0.25,1,0],[0.5,1,0],[0.75,1,0],[1,1,0],[0,0.25,0],[0,0.5,0],[0,0.75,0],[1,0.25,0],[1,0.5,0],[1,0.75,0]];outlineConnect=0;fontColor=#232F3E;fillColor=#E7157B;strokeColor=#ffffff;dashed=0;verticalLabelPosition=bottom;verticalAlign=top;align=center;html=1;fontSize=12;fontStyle=0;aspect=fixed;shape=mxgraph.aws4.resourceIcon;resIcon=mxgraph.aws4.cloudwatch_2;" vertex="1" parent="T7BaLUBPOmV6ZT6eGmMS-78">
          <mxGeometry x="149" y="56" width="78" height="78" as="geometry" />
        </mxCell>
        <mxCell id="T7BaLUBPOmV6ZT6eGmMS-73" value="Cloud Formation" style="sketch=0;points=[[0,0,0],[0.25,0,0],[0.5,0,0],[0.75,0,0],[1,0,0],[0,1,0],[0.25,1,0],[0.5,1,0],[0.75,1,0],[1,1,0],[0,0.25,0],[0,0.5,0],[0,0.75,0],[1,0.25,0],[1,0.5,0],[1,0.75,0]];points=[[0,0,0],[0.25,0,0],[0.5,0,0],[0.75,0,0],[1,0,0],[0,1,0],[0.25,1,0],[0.5,1,0],[0.75,1,0],[1,1,0],[0,0.25,0],[0,0.5,0],[0,0.75,0],[1,0.25,0],[1,0.5,0],[1,0.75,0]];outlineConnect=0;fontColor=#232F3E;fillColor=#E7157B;strokeColor=#ffffff;dashed=0;verticalLabelPosition=bottom;verticalAlign=top;align=center;html=1;fontSize=12;fontStyle=0;aspect=fixed;shape=mxgraph.aws4.resourceIcon;resIcon=mxgraph.aws4.cloudformation;" vertex="1" parent="T7BaLUBPOmV6ZT6eGmMS-72">
          <mxGeometry x="20" y="902" width="78" height="78" as="geometry" />
        </mxCell>
        <mxCell id="T7BaLUBPOmV6ZT6eGmMS-47" value="S3 PDF" style="sketch=0;outlineConnect=0;fontColor=#232F3E;gradientColor=none;strokeColor=#ffffff;fillColor=#232F3E;dashed=0;verticalLabelPosition=middle;verticalAlign=bottom;align=center;html=1;whiteSpace=wrap;fontSize=10;fontStyle=1;spacing=3;shape=mxgraph.aws4.productIcon;prIcon=mxgraph.aws4.s3;" vertex="1" parent="T7BaLUBPOmV6ZT6eGmMS-72">
          <mxGeometry x="608" y="540" width="80" height="100" as="geometry" />
        </mxCell>
        <mxCell id="T7BaLUBPOmV6ZT6eGmMS-64" style="edgeStyle=orthogonalEdgeStyle;rounded=0;orthogonalLoop=1;jettySize=auto;html=1;entryX=0.855;entryY=0.855;entryDx=0;entryDy=0;entryPerimeter=0;strokeColor=#FF3333;" edge="1" parent="T7BaLUBPOmV6ZT6eGmMS-67" source="T7BaLUBPOmV6ZT6eGmMS-32" target="T7BaLUBPOmV6ZT6eGmMS-10">
          <mxGeometry relative="1" as="geometry">
            <Array as="points">
              <mxPoint x="750" y="497" />
              <mxPoint x="750" y="192" />
            </Array>
          </mxGeometry>
        </mxCell>
        <mxCell id="T7BaLUBPOmV6ZT6eGmMS-51" style="edgeStyle=orthogonalEdgeStyle;rounded=0;orthogonalLoop=1;jettySize=auto;html=1;entryX=0.5;entryY=0;entryDx=0;entryDy=0;entryPerimeter=0;endArrow=none;endFill=0;startArrow=classic;startFill=1;" edge="1" parent="T7BaLUBPOmV6ZT6eGmMS-67" source="T7BaLUBPOmV6ZT6eGmMS-48" target="T7BaLUBPOmV6ZT6eGmMS-10">
          <mxGeometry relative="1" as="geometry" />
        </mxCell>
        <mxCell id="T7BaLUBPOmV6ZT6eGmMS-70" style="edgeStyle=orthogonalEdgeStyle;rounded=0;orthogonalLoop=1;jettySize=auto;html=1;" edge="1" parent="T7BaLUBPOmV6ZT6eGmMS-67" source="T7BaLUBPOmV6ZT6eGmMS-55" target="T7BaLUBPOmV6ZT6eGmMS-58">
          <mxGeometry relative="1" as="geometry" />
        </mxCell>
        <mxCell id="T7BaLUBPOmV6ZT6eGmMS-59" value="" style="edgeStyle=orthogonalEdgeStyle;rounded=0;orthogonalLoop=1;jettySize=auto;html=1;" edge="1" parent="T7BaLUBPOmV6ZT6eGmMS-67" source="T7BaLUBPOmV6ZT6eGmMS-47" target="T7BaLUBPOmV6ZT6eGmMS-58">
          <mxGeometry relative="1" as="geometry" />
        </mxCell>
        <mxCell id="T7BaLUBPOmV6ZT6eGmMS-80" style="edgeStyle=orthogonalEdgeStyle;rounded=0;orthogonalLoop=1;jettySize=auto;html=1;" edge="1" parent="1" source="T7BaLUBPOmV6ZT6eGmMS-76">
          <mxGeometry relative="1" as="geometry">
            <mxPoint x="866" y="600" as="targetPoint" />
            <Array as="points">
              <mxPoint x="1479" y="960" />
              <mxPoint x="866" y="960" />
            </Array>
          </mxGeometry>
        </mxCell>
      </root>
    </mxGraphModel>
  </diagram>
</mxfile>
